<?xml version="1.0" encoding="iso-8859-1"?>
<!-- Generator: Adobe Illustrator 19.0.0, SVG Export Plug-In . SVG Version: 6.00 Build 0)  -->
<svg xmlns="http://www.w3.org/2000/svg" xmlns:xlink="http://www.w3.org/1999/xlink" version="1.1" id="Capa_1" x="0px" y="0px" viewBox="0 0 512 512" style="enable-background:new 0 0 512 512;" xml:space="preserve" width="512px" height="512px">
<g>
	<g>
		<path d="M214.538,236.559c0-34.126-22.954-55.445-46.052-73.51c23.775-19.03,46.052-39.732,46.052-72.304c0-5.522-4.477-10-10-10    s-10,4.478-10,10c0,24.975-20.104,42.122-42.383,59.736c-8.865-6.896-17.22-13.84-23.96-21.481h21.138c5.523,0,10-4.478,10-10    c0-5.522-4.477-10-10-10h-33.625c-2.077-5.544-3.246-11.53-3.246-18.11v-0.145c0-5.522-4.477-10-10-10c-5.523,0-10,4.478-10,10    v0.145c0,33.384,21.303,54.605,43.628,72.394c-22.405,18.435-43.628,40.249-43.628,73.129c0,34.127,22.954,55.445,46.052,73.51    c-23.775,19.029-46.052,39.731-46.052,72.304c0,5.522,4.477,10,10,10c5.523,0,10-4.478,10-10    c0-24.976,20.104-42.123,42.382-59.737c8.098,6.299,15.769,12.637,22.174,19.51H161c-5.523,0-10,4.478-10,10    c0,5.522,4.477,10,10,10h29.093c0.139,0,0.274-0.015,0.412-0.021c2.572,6.095,4.033,12.727,4.033,20.103v0.145    c0,5.522,4.477,10,10,10s10-4.478,10-10v-0.145c0-33.385-21.303-54.606-43.629-72.394    C193.314,291.252,214.538,269.438,214.538,236.559z M118.571,212h30.763c5.523,0,10-4.478,10-10c0-5.522-4.477-10-10-10h-15.425    c5.564-5.563,11.854-10.873,18.436-16.16c19.191,14.754,36.615,29.356,41.083,50.16h-79.919    C114.528,221.04,116.264,216.399,118.571,212z M154.653,297.131c-19.486-14.983-37.149-29.809-41.275-51.131h80.289    c-0.919,4.96-2.546,9.603-4.75,14h-31.584c-5.523,0-10,4.478-10,10c0,5.522,4.477,10,10,10h16.722    C168.259,285.918,161.618,291.537,154.653,297.131z" fill="#0f391d"/>
	</g>
</g>
<g>
	<g>
		<path d="M502,75.031h-31V58c0-5.522-4.477-10-10-10H277.77c-8.419,0-16.079,3.298-21.77,8.663C250.309,51.298,242.65,48,234.23,48    H51c-5.523,0-10,4.478-10,10v17.031H10c-5.523,0-10,4.478-10,10V454c0,5.522,4.477,10,10,10h492c5.523,0,10-4.478,10-10V85.031    C512,79.509,507.523,75.031,502,75.031z M246,444H20V95.031h21v318.99c0,5.522,4.477,10,10,10h183.23    c6.49,0,11.77,5.28,11.77,11.77V444z M246,406.291c-3.643-1.458-7.612-2.27-11.77-2.27H61V68h173.23    c6.49,0,11.77,5.28,11.77,11.77V406.291z M266,79.77c0-6.49,5.28-11.77,11.77-11.77H451v336.021H277.77    c-4.157,0-8.127,0.811-11.77,2.27V79.77z M492,444H266v-8.209c0-6.489,5.28-11.77,11.77-11.77H461c5.523,0,10-4.478,10-10V95.031    h21V444z" fill="#0f391d"/>
	</g>
</g>
<g>
	<g>
		<path d="M422.663,114.013h-0.267c-5.523,0-10,4.478-10,10c0,5.522,4.477,10,10,10h0.267c5.523,0,10-4.478,10-10    C432.663,118.491,428.186,114.013,422.663,114.013z" fill="#0f391d"/>
	</g>
</g>
<g>
	<g>
		<path d="M389.915,114.013H294.87c-5.523,0-10,4.478-10,10c0,5.522,4.477,10,10,10h95.045c5.523,0,10-4.478,10-10    C399.915,118.491,395.438,114.013,389.915,114.013z" fill="#0f391d"/>
	</g>
</g>
<g>
	<g>
		<path d="M422.663,166.201h-0.267c-5.523,0-10,4.478-10,10c0,5.522,4.477,10,10,10h0.267c5.523,0,10-4.478,10-10    C432.663,170.679,428.186,166.201,422.663,166.201z" fill="#0f391d"/>
	</g>
</g>
<g>
	<g>
		<path d="M389.915,166.201H294.87c-5.523,0-10,4.478-10,10c0,5.522,4.477,10,10,10h95.045c5.523,0,10-4.478,10-10    C399.915,170.679,395.438,166.201,389.915,166.201z" fill="#0f391d"/>
	</g>
</g>
<g>
	<g>
		<path d="M422.663,218.39h-0.267c-5.523,0-10,4.478-10,10c0,5.522,4.477,10,10,10h0.267c5.523,0,10-4.478,10-10    C432.663,222.868,428.186,218.39,422.663,218.39z" fill="#0f391d"/>
	</g>
</g>
<g>
	<g>
		<path d="M389.915,218.39H294.87c-5.523,0-10,4.478-10,10c0,5.522,4.477,10,10,10h95.045c5.523,0,10-4.478,10-10    C399.915,222.868,395.438,218.39,389.915,218.39z" fill="#0f391d"/>
	</g>
</g>
<g>
	<g>
		<path d="M422.663,270.578h-0.267c-5.523,0-10,4.478-10,10c0,5.522,4.477,10,10,10h0.267c5.523,0,10-4.478,10-10    C432.663,275.056,428.186,270.578,422.663,270.578z" fill="#0f391d"/>
	</g>
</g>
<g>
	<g>
		<path d="M389.915,270.578H294.87c-5.523,0-10,4.478-10,10c0,5.522,4.477,10,10,10h95.045c5.523,0,10-4.478,10-10    C399.915,275.056,395.438,270.578,389.915,270.578z" fill="#0f391d"/>
	</g>
</g>
<g>
	<g>
		<path d="M422.663,322.767h-0.267c-5.523,0-10,4.478-10,10c0,5.522,4.477,10,10,10h0.267c5.523,0,10-4.478,10-10    C432.663,327.245,428.186,322.767,422.663,322.767z" fill="#0f391d"/>
	</g>
</g>
<g>
	<g>
		<path d="M389.915,322.767H294.87c-5.523,0-10,4.478-10,10c0,5.522,4.477,10,10,10h95.045c5.523,0,10-4.478,10-10    C399.915,327.245,395.438,322.767,389.915,322.767z" fill="#0f391d"/>
	</g>
</g>
<g>
</g>
<g>
</g>
<g>
</g>
<g>
</g>
<g>
</g>
<g>
</g>
<g>
</g>
<g>
</g>
<g>
</g>
<g>
</g>
<g>
</g>
<g>
</g>
<g>
</g>
<g>
</g>
<g>
</g>
</svg>
