<?xml version="1.0" encoding="iso-8859-1"?>
<!-- Generator: Adobe Illustrator 19.0.0, SVG Export Plug-In . SVG Version: 6.00 Build 0)  -->
<svg xmlns="http://www.w3.org/2000/svg" xmlns:xlink="http://www.w3.org/1999/xlink" version="1.1" id="Capa_1" x="0px" y="0px" viewBox="0 0 58.182 58.182" style="enable-background:new 0 0 58.182 58.182;" xml:space="preserve" width="512px" height="512px">
<g>
	<g>
		<path d="M58.168,30.707l-7.993-18.685c0.158-0.423,0.249-0.879,0.249-1.356c0-2.143-1.738-3.879-3.88-3.879    c-1.297,0-2.441,0.638-3.145,1.616h-8.946C33.57,6.315,31.5,4.849,29.09,4.849c-2.411,0-4.479,1.466-5.361,3.556h-8.946    c-0.705-0.978-1.85-1.616-3.147-1.616c-2.142,0-3.878,1.736-3.878,3.879c0,0.477,0.091,0.932,0.249,1.356L0.014,30.707H0    c0,6.068,5.211,10.99,11.637,10.99c6.428,0,11.636-4.922,11.636-10.99h-0.014L15.655,12.93h8.074    c0.445,1.052,1.191,1.946,2.129,2.574v28.779H14.222v2.586c0,3.556,2.909,6.465,6.465,6.465h16.808    c3.556,0,6.465-2.909,6.465-6.465v-2.586H32.323v-28.78c0.938-0.629,1.684-1.522,2.129-2.573h8.073L34.91,30.707h-0.001v0.001    l-0.004,0.009l0.005,0.002c0.007,6.063,5.214,10.978,11.636,10.978c6.428,0,11.636-4.922,11.636-10.99    C58.182,30.708,58.168,30.708,58.168,30.707z M19.743,30.707H3.53l6.984-16.328c0.355,0.107,0.731,0.166,1.121,0.166    s0.768-0.059,1.124-0.167L19.743,30.707z M38.425,30.707l6.995-16.328c0.356,0.108,0.733,0.167,1.124,0.167    s0.768-0.059,1.124-0.167l6.985,16.328H38.425z" fill="#0f391d"/>
	</g>
</g>
<g>
</g>
<g>
</g>
<g>
</g>
<g>
</g>
<g>
</g>
<g>
</g>
<g>
</g>
<g>
</g>
<g>
</g>
<g>
</g>
<g>
</g>
<g>
</g>
<g>
</g>
<g>
</g>
<g>
</g>
</svg>
