<?xml version="1.0" encoding="iso-8859-1"?>
<!-- Generator: Adobe Illustrator 19.0.0, SVG Export Plug-In . SVG Version: 6.00 Build 0)  -->
<svg xmlns="http://www.w3.org/2000/svg" xmlns:xlink="http://www.w3.org/1999/xlink" version="1.1" id="Layer_1" x="0px" y="0px" viewBox="0 0 512 512" style="enable-background:new 0 0 512 512;" xml:space="preserve" width="512px" height="512px">
<g>
	<g>
		<path d="M267.414,133.701c-22.892,0-44.304,6.306-62.623,17.252c29.842,27.493,46.128,65.129,46.128,105.047    c0,39.886-16.259,77.527-46.131,105.044c18.321,10.947,39.732,17.255,62.626,17.255c67.544,0,122.299-54.755,122.299-122.299    S334.958,133.701,267.414,133.701z" fill="#0f391d"/>
	</g>
</g>
<g>
	<g>
		<path d="M267.415,11.416c-9.524,0-17.246,7.722-17.246,17.246v67.293c0,9.524,7.722,17.246,17.246,17.246    c9.524,0,17.246-7.722,17.246-17.246V28.662C284.66,19.137,276.939,11.416,267.415,11.416z" fill="#0f391d"/>
	</g>
</g>
<g>
	<g>
		<path d="M267.415,398.801c-9.524,0-17.246,7.722-17.246,17.246v67.291c0,9.524,7.722,17.246,17.246,17.246    c9.524,0,17.246-7.722,17.246-17.246v-67.291C284.66,406.523,276.94,398.801,267.415,398.801z" fill="#0f391d"/>
	</g>
</g>
<g>
	<g>
		<path d="M202.327,108.773L168.68,50.496c-4.762-8.249-15.31-11.074-23.558-6.312c-8.249,4.762-11.075,15.31-6.312,23.558    l33.647,58.276c5.544,9.603,15.521,10.952,23.558,6.312C204.264,127.568,207.091,117.021,202.327,108.773z" fill="#0f391d"/>
	</g>
</g>
<g>
	<g>
		<path d="M396.02,444.259l-33.647-58.277c-4.763-8.249-15.309-11.074-23.558-6.312c-8.249,4.762-11.075,15.31-6.312,23.558    l33.647,58.278c4.762,8.248,15.309,11.074,23.558,6.312C397.957,463.055,400.783,452.507,396.02,444.259z" fill="#0f391d"/>
	</g>
</g>
<g>
	<g>
		<path d="M472.919,354.734l-58.277-33.647c-8.249-4.765-18.797-1.937-23.558,6.312c-4.763,8.248-1.937,18.796,6.312,23.558    l58.278,33.647c8.241,4.76,18.792,1.942,23.558-6.312C483.994,370.044,481.168,359.496,472.919,354.734z" fill="#0f391d"/>
	</g>
</g>
<g>
	<g>
		<path d="M494.754,238.754h-67.293c-9.524,0-17.246,7.722-17.246,17.246s7.722,17.246,17.246,17.246h67.293    c9.524,0,17.246-7.722,17.246-17.246S504.278,238.754,494.754,238.754z" fill="#0f391d"/>
	</g>
</g>
<g>
	<g>
		<path d="M479.232,133.708c-4.763-8.249-15.31-11.073-23.558-6.312l-58.278,33.646c-8.249,4.762-11.075,15.31-6.312,23.558    c4.762,8.248,15.309,11.074,23.558,6.312l58.277-33.646C481.169,152.504,483.995,141.956,479.232,133.708z" fill="#0f391d"/>
	</g>
</g>
<g>
	<g>
		<path d="M196.015,379.67c-9.751-5.633-18.668-2.159-23.558,6.312l-33.647,58.277c-4.763,8.248-1.937,18.796,6.312,23.558    c8.241,4.76,18.792,1.942,23.558-6.312l33.647-58.278C207.091,394.979,204.264,384.432,196.015,379.67z" fill="#0f391d"/>
	</g>
</g>
<g>
	<g>
		<path d="M389.708,44.184c-8.249-4.765-18.796-1.937-23.558,6.312l-33.647,58.276c-4.763,8.248-1.937,18.796,6.312,23.558    c8.241,4.76,18.792,1.942,23.558-6.312l33.647-58.276C400.783,59.494,397.957,48.946,389.708,44.184z" fill="#0f391d"/>
	</g>
</g>
<g>
	<g>
		<path d="M108.215,147.786C48.45,147.786,0,196.235,0,256s48.45,108.214,108.214,108.214c59.765,0,108.215-48.448,108.215-108.214    S167.979,147.786,108.215,147.786z M60.653,313.63c-10.964,0-19.851-8.887-19.851-19.851s8.887-19.851,19.851-19.851    c10.964,0,19.851,8.887,19.851,19.851S71.617,313.63,60.653,313.63z M80.504,244.273c-19.05,0-34.492-15.442-34.492-34.492    c0-19.05,15.442-34.492,34.492-34.492c19.049,0,34.492,15.442,34.492,34.492C114.996,228.831,99.554,244.273,80.504,244.273z     M145.734,322.831c-13.505,0-24.451-10.948-24.451-24.451c0-13.505,10.948-24.451,24.451-24.451    c13.505,0,24.451,10.948,24.451,24.451C170.186,311.884,159.239,322.831,145.734,322.831z M169.783,238.371    c-9.877,0-17.885-8.008-17.885-17.885c0-9.878,8.008-17.885,17.885-17.885c9.878,0,17.885,8.008,17.885,17.885    C187.669,230.363,179.661,238.371,169.783,238.371z" fill="#0f391d"/>
	</g>
</g>
<g>
</g>
<g>
</g>
<g>
</g>
<g>
</g>
<g>
</g>
<g>
</g>
<g>
</g>
<g>
</g>
<g>
</g>
<g>
</g>
<g>
</g>
<g>
</g>
<g>
</g>
<g>
</g>
<g>
</g>
</svg>
