<?xml version="1.0" encoding="iso-8859-1"?>
<!-- Generator: Adobe Illustrator 16.0.0, SVG Export Plug-In . SVG Version: 6.00 Build 0)  -->
<!DOCTYPE svg PUBLIC "-//W3C//DTD SVG 1.1//EN" "http://www.w3.org/Graphics/SVG/1.1/DTD/svg11.dtd">
<svg xmlns="http://www.w3.org/2000/svg" xmlns:xlink="http://www.w3.org/1999/xlink" version="1.1" id="Capa_1" x="0px" y="0px" width="512px" height="512px" viewBox="0 0 84.189 84.189" style="enable-background:new 0 0 84.189 84.189;" xml:space="preserve">
<g>
	<path d="M83.365,29.112c-1.094-1.095-2.872-1.095-3.961,0c-5.527,5.521-15.486,4.563-22.2-2.146   c-3.306-3.305-5.318-7.485-5.669-11.764c-0.34-4.104,0.925-7.809,3.535-10.419c1.094-1.095,1.094-2.867,0-3.962   c-1.089-1.094-2.867-1.094-3.96,0c-3.8,3.792-5.631,9.062-5.162,14.834c0.191,2.359,0.839,4.652,1.751,6.879   c-2.785-1.148-5.717-1.8-8.64-1.8c-5.073,0-9.724,1.854-13.094,5.23c-5.549,5.544-6.54,14.092-3.388,21.763   C14.905,44.57,6.375,45.56,0.821,51.11c-1.095,1.094-1.095,2.872,0,3.961c1.094,1.096,2.867,1.096,3.961,0   c5.526-5.51,15.469-4.562,22.184,2.146c6.714,6.708,7.671,16.667,2.145,22.194c-1.095,1.083-1.095,2.867,0,3.962   c0.546,0.548,1.269,0.815,1.986,0.815c0.717,0,1.434-0.273,1.98-0.815c5.538-5.537,6.535-14.062,3.399-21.713   c2.786,1.144,5.718,1.783,8.64,1.783c5.072,0,9.729-1.85,13.104-5.23c5.538-5.527,6.528-14.041,3.39-21.702   c2.834,1.16,5.781,1.768,8.656,1.768c4.907,0,9.596-1.712,13.088-5.209C84.465,31.979,84.465,30.207,83.365,29.112z M54.261,54.25   c-5.318,5.325-15.755,4.308-22.196-2.134c-6.703-6.707-7.66-16.667-2.134-22.194c2.315-2.309,5.554-3.59,9.133-3.59   c4.657,0,9.412,2.091,13.051,5.729C58.814,38.775,59.776,48.729,54.261,54.25z M41.784,31.164l11.228,11.229   c1.092,1.094,1.092,2.861,0,3.961c-0.552,0.548-1.267,0.821-1.985,0.821c-0.723,0-1.438-0.279-1.98-0.821L37.817,35.126   c-1.09-1.095-1.09-2.867,0-3.962C38.912,30.07,40.696,30.064,41.784,31.164z M46.371,49.046c1.088,1.089,1.088,2.867,0,3.961   c-0.555,0.549-1.271,0.816-1.981,0.816c-0.722,0-1.44-0.274-1.987-0.816L31.168,41.774c-1.095-1.089-1.095-2.866,0-3.961   c1.095-1.088,2.867-1.088,3.962,0L46.371,49.046z M27.076,68.33c1.095,1.089,1.095,2.867,0,3.962   c-0.548,0.548-1.265,0.82-1.982,0.82s-1.434-0.284-1.986-0.82L11.88,61.065c-1.09-1.097-1.09-2.87,0-3.964   c1.093-1.094,2.872-1.094,3.962,0L27.076,68.33z M57.105,15.842c-1.093-1.088-1.093-2.867,0-3.961c1.089-1.089,2.867-1.089,3.956,0   l11.242,11.234c1.088,1.095,1.088,2.873,0,3.962c-0.555,0.553-1.27,0.821-1.983,0.821c-0.711,0-1.438-0.273-1.986-0.821   L57.105,15.842z" fill="#0f391d"/>
</g>
<g>
</g>
<g>
</g>
<g>
</g>
<g>
</g>
<g>
</g>
<g>
</g>
<g>
</g>
<g>
</g>
<g>
</g>
<g>
</g>
<g>
</g>
<g>
</g>
<g>
</g>
<g>
</g>
<g>
</g>
</svg>
