<?xml version="1.0" encoding="iso-8859-1"?>
<!-- Generator: Adobe Illustrator 16.0.0, SVG Export Plug-In . SVG Version: 6.00 Build 0)  -->
<!DOCTYPE svg PUBLIC "-//W3C//DTD SVG 1.1//EN" "http://www.w3.org/Graphics/SVG/1.1/DTD/svg11.dtd">
<svg xmlns="http://www.w3.org/2000/svg" xmlns:xlink="http://www.w3.org/1999/xlink" version="1.1" id="Capa_1" x="0px" y="0px" width="512px" height="512px" viewBox="0 0 31.867 31.867" style="enable-background:new 0 0 31.867 31.867;" xml:space="preserve">
<g>
	<g>
		<path d="M6.883,9.472c0.023,0,0.048-0.009,0.071-0.012c0.703,3.951,4.069,7.95,8.281,7.95c4.133,0,7.46-3.782,8.291-7.624    c0.07,0.025,0.145,0.041,0.219,0.041c0.567,0,1.026-0.768,1.026-1.715c0-0.946-0.459-1.714-1.026-1.714    c-0.06,0-0.117,0.013-0.175,0.029c-0.06-0.287-0.135-0.569-0.226-0.843c0.05,0.008,0.101,0.015,0.152,0.015    c0.549,0,0.993-0.444,0.993-0.993c0-0.234-0.083-0.445-0.22-0.615c0.139-0.207,0.22-0.455,0.22-0.723    c0-0.432-0.212-0.813-0.534-1.049c-0.057-0.706-0.605-1.266-1.309-1.334C22.415,0.534,22.015,0.3,21.561,0.3    c-0.374,0-0.71,0.16-0.948,0.412c-0.129-0.061-0.271-0.099-0.426-0.099c-0.325,0-0.611,0.16-0.793,0.402    C18.173,0.372,16.771,0,15.274,0c-1.361,0-2.644,0.312-3.784,0.853c-0.182-0.232-0.46-0.384-0.777-0.384    c-0.153,0-0.297,0.037-0.425,0.099c-0.24-0.253-0.574-0.412-0.948-0.412c-0.457,0-0.856,0.234-1.09,0.586    C7.549,0.811,7,1.37,6.944,2.076C6.622,2.314,6.409,2.693,6.409,3.125c0,0.268,0.08,0.516,0.219,0.723    C6.492,4.017,6.409,4.229,6.409,4.462c0,0.5,0.37,0.909,0.851,0.979C7.186,5.648,7.125,5.859,7.067,6.073    c-0.06-0.018-0.121-0.031-0.184-0.031c-0.567,0-1.028,0.768-1.028,1.715C5.855,8.705,6.316,9.472,6.883,9.472z M17.587,15.669    c-0.348,0.153-0.703,0.276-1.072,0.363v-0.917h-2.254v0.978c-0.323-0.061-0.64-0.147-0.946-0.262v-3.019h4.271V15.669z     M18.8,14.971v-3.372h-6.702v3.629c-2.408-1.521-4.069-4.582-4.069-7.253c0-0.157,0.015-0.312,0.025-0.466h0.975l0.198,2.165    h5.181l0.238-2.599l1.466-0.031l0.243,2.63h5.179l0.148-1.628h0.832C22.488,10.554,21.001,13.392,18.8,14.971z M9.747,6.095h4.144    l-0.253,2.737H10L9.747,6.095z M16.872,6.095h4.145l-0.252,2.736h-3.641L16.872,6.095z M22.431,6.972h-0.649l0.146-1.556    l-0.002-0.115C22.169,5.826,22.337,6.388,22.431,6.972z M21.899,5.25l-1.311-0.021l0.006,0.021h-4.647l0.038,0.415l-1.212,0.03    l0.041-0.444h-0.166c0,0-2.512-0.004-4.186-0.004c-0.931,0-1.311,0-1.474,0.022L8.821,5.251L8.93,6.435H8.228    c0.749-2.987,3.62-5.219,7.047-5.219C18.229,1.216,20.773,2.877,21.899,5.25z" fill="#0f391d"/>
		<rect x="14.804" y="10.001" width="1.291" height="0.608" fill="#0f391d"/>
		<polygon points="19.64,18.486 15.674,29.173 12.093,18.486 5.61,19.891 6.26,31.867 25.651,31.867 26.257,19.891   " fill="#0f391d"/>
		<polygon points="13.434,18.65 14.543,21.132 16.982,21.132 18.05,18.65   " fill="#0f391d"/>
		<polygon points="15.839,26.753 17.335,21.641 14.226,21.641   " fill="#0f391d"/>
	</g>
</g>
<g>
</g>
<g>
</g>
<g>
</g>
<g>
</g>
<g>
</g>
<g>
</g>
<g>
</g>
<g>
</g>
<g>
</g>
<g>
</g>
<g>
</g>
<g>
</g>
<g>
</g>
<g>
</g>
<g>
</g>
</svg>
