<?xml version="1.0" encoding="iso-8859-1"?>
<!-- Generator: Adobe Illustrator 16.0.0, SVG Export Plug-In . SVG Version: 6.00 Build 0)  -->
<!DOCTYPE svg PUBLIC "-//W3C//DTD SVG 1.1//EN" "http://www.w3.org/Graphics/SVG/1.1/DTD/svg11.dtd">
<svg xmlns="http://www.w3.org/2000/svg" xmlns:xlink="http://www.w3.org/1999/xlink" version="1.1" id="Capa_1" x="0px" y="0px" width="512px" height="512px" viewBox="0 0 49 49" style="enable-background:new 0 0 49 49;" xml:space="preserve">
<g>
	<path d="M12.767,7.643v40.31c-2.445-0.223-4.365-2.253-4.365-4.755V12.399C8.401,9.896,10.323,7.865,12.767,7.643z M13.598,47.999   h0.435v-40.4h-0.435V47.999z M32.498,7.599h1.066v40.4h-0.768V49h-2.198v-1.001H18.4V49h-2.2v-1.001h-0.768v-40.4H16.5V1.2   c0-0.662,0.536-1.2,1.199-1.2h13.599c0.662,0,1.199,0.538,1.199,1.2V7.599z M28.55,18.236c1.041,0,1.884-0.843,1.884-1.884   s-0.843-1.884-1.884-1.884s-1.885,0.843-1.885,1.884S27.509,18.236,28.55,18.236z M25.775,16.469l-3.769,1.483l2.104,5.347   l3.769-1.483L25.775,16.469z M18.901,7.599h11.194v-5.2H18.901V7.599z M18.452,21.342l2.3,0.512l0.513-2.298l-2.3-0.513   L18.452,21.342z M19.623,26.193c0,1.533,0.863,2.777,1.929,2.777c1.067,0,1.93-1.244,1.93-2.777c0-1.535-0.862-2.779-1.93-2.779   C20.486,23.414,19.623,24.659,19.623,26.193z M25.699,31.092H20.33v1.789h5.369V31.092z M30.548,25.676h-5.369v1.789h5.369V25.676z    M34.968,47.999h0.435v-40.4h-0.435V47.999z M36.233,7.643v40.31c2.444-0.223,4.365-2.253,4.365-4.755V12.399   C40.599,9.896,38.678,7.865,36.233,7.643z" fill="#0f391d"/>
</g>
<g>
</g>
<g>
</g>
<g>
</g>
<g>
</g>
<g>
</g>
<g>
</g>
<g>
</g>
<g>
</g>
<g>
</g>
<g>
</g>
<g>
</g>
<g>
</g>
<g>
</g>
<g>
</g>
<g>
</g>
</svg>
