<?xml version="1.0" encoding="iso-8859-1"?>
<!-- Generator: Adobe Illustrator 19.0.0, SVG Export Plug-In . SVG Version: 6.00 Build 0)  -->
<svg xmlns="http://www.w3.org/2000/svg" xmlns:xlink="http://www.w3.org/1999/xlink"
 version="1.1" id="Capa_1" x="0px" y="0px" 
 viewBox="0 0 512 512" style="enable-background:new 0 0 512 512;"
  xml:space="preserve" width="20px" height="20px">
<g>
	<g>
		<path d="M440.371,497H403.77l3.999-144.472c0.625-22.605-12.322-43.149-32.985-52.338l-42.677-18.979    c-0.258-0.115-0.519-0.21-0.782-0.294l-6.025-5.147c30.448-9.235,53.217-20.539,54.296-21.078    c3.687-1.843,5.183-6.34,3.366-10.039c-0.153-0.311-15.252-31.853-15.252-100.879v-32.065C367.71,50.112,317.597,0,256,0    S144.291,50.112,144.291,111.709v32.065c0,69.026-15.1,100.568-15.24,100.855c-1.853,3.705-0.351,8.21,3.354,10.063    c1.087,0.543,23.853,11.847,54.294,21.08l-6.84,5.843l-41.77,18.576c-20.663,9.188-33.61,29.732-32.985,52.338L109.103,497H71.629    c-4.142,0-7.5,3.358-7.5,7.5c0,4.142,3.358,7.5,7.5,7.5h368.742c4.142,0,7.5-3.358,7.5-7.5    C447.871,500.358,444.513,497,440.371,497z M159.289,111.711C159.291,58.384,202.674,15,256,15s96.71,43.384,96.71,96.709v32.065    c0,54.793,9.072,87.118,13.901,100.442c-9.976,4.512-30.807,13.306-54.979,19.879l-2.664-2.275    c-1.497-1.279-3.435-1.903-5.387-1.769v-18.647c14.049-9.101,25.501-22.213,32.545-38.168c4.123-9.337,6.441-19.712,6.705-30.003    c0.867-33.826-28.153-42.394-58.878-51.465c-25.739-7.599-54.913-16.211-78.836-39.482c-2.97-2.888-7.717-2.822-10.605,0.146    c-2.888,2.97-2.823,7.718,0.146,10.606c26.581,25.855,59,35.426,85.048,43.117c32.892,9.71,48.678,15.326,48.13,36.693    c-0.214,8.354-2.092,16.767-5.432,24.33c-11.615,26.308-37.681,43.307-66.404,43.307c-35.029,0-65.045-24.999-71.372-59.441    c-1.414-7.7-8.543-13.288-16.222-12.726c-0.84,0.062-1.699-0.012-2.563-0.216c-3.735-0.884-6.553-4.902-6.553-9.346v-6.152    c0-4.553,2.979-8.509,6.93-9.202c3.255-0.572,6.384,0.628,8.364,3.21c1.436,1.872,3.348,3.21,5.529,3.869    c3.195,0.965,6.719,0.4,9.429-1.513c6.56-4.63,12.121-10.504,16.527-17.458c2.217-3.499,1.179-8.132-2.32-10.35    c-3.499-2.217-8.132-1.178-10.35,2.32c-2.681,4.231-5.911,7.927-9.629,11.024c-5.354-4.947-12.757-7.173-20.144-5.877    c-1.507,0.265-2.954,0.685-4.337,1.229V111.711z M223.418,276.254v-27.062c10.119,4.059,21.124,6.291,32.581,6.291    c11.376,0,22.4-2.222,32.581-6.312v27.082l-22.637,31.481c-0.026,0.036-0.047,0.075-0.073,0.112    c-0.025,0.036-0.054,0.069-0.079,0.106l-9.362,14.043c-0.054,0.081-0.153,0.23-0.43,0.23s-0.376-0.149-0.43-0.23l-9.362-14.043    c-0.025-0.037-0.054-0.07-0.079-0.106c-0.026-0.037-0.046-0.076-0.073-0.112L223.418,276.254z M229.587,310.523l-10.815,8.111    c-2.03,1.523-4.61,2.062-7.08,1.479c-2.469-0.583-4.537-2.219-5.671-4.488l-12.833-25.668l13.387-11.436L229.587,310.523z     M305.426,278.521l13.388,11.436l-12.834,25.668c-1.135,2.27-3.202,3.905-5.671,4.488c-2.47,0.583-5.05,0.044-7.08-1.478    l-10.815-8.112L305.426,278.521z M145.389,244.217c3.611-9.962,9.592-30.551,12.381-63.206c1.463,0.721,3.001,1.304,4.618,1.687    c2.327,0.55,4.69,0.748,7.022,0.586c0.173,0.07,0.424,0.323,0.465,0.469c4.489,24.44,18.869,44.93,38.544,57.673v18.625    c-1.953-0.134-3.89,0.49-5.387,1.769l-2.663,2.275C176.195,257.521,155.363,248.728,145.389,244.217z M144.183,313.896    l36.162-16.082l12.259,24.519c3.13,6.259,8.831,10.771,15.641,12.378c1.799,0.425,3.619,0.634,5.428,0.634    c5.037,0,9.979-1.621,14.099-4.71l10.354-7.766l4.965,7.447c2.884,4.327,7.71,6.91,12.91,6.91c5.2,0,10.026-2.583,12.91-6.91    l4.964-7.447l10.354,7.766c4.12,3.089,9.062,4.71,14.099,4.71c1.808,0,3.629-0.209,5.428-0.634    c6.811-1.607,12.511-6.119,15.641-12.378l12.418-24.836l36.876,16.399c2.897,1.288,5.583,2.884,8.034,4.735l-27.262,34.078    h-186.05l-27.263-34.078C138.6,316.781,141.286,315.185,144.183,313.896z M137.228,377.547l6.235,112.225    c0.141,2.543,0.689,4.97,1.568,7.228H124.11l-4.012-144.887c-0.222-8.017,1.9-15.675,5.864-22.204l21.516,26.894    c-1.389,0.944-2.684,2.034-3.85,3.267C139.203,364.748,136.87,371.118,137.228,377.547z M359.798,376.716l-6.235,112.226    c-0.251,4.519-3.993,8.059-8.519,8.059H166.957V497c-4.526,0-8.268-3.54-8.519-8.059l-6.235-112.226    c-0.131-2.365,0.693-4.615,2.321-6.336c1.628-1.721,3.829-2.668,6.198-2.668h190.557c2.369,0,4.57,0.947,6.198,2.668    S359.929,374.35,359.798,376.716z M388.764,497h-21.793c0.879-2.258,1.427-4.685,1.568-7.227l6.235-112.225    c0.357-6.43-1.976-12.8-6.4-17.478c-1.009-1.066-2.115-2.023-3.292-2.874l21.83-27.288c3.963,6.53,6.085,14.189,5.863,22.205    L388.764,497z" fill="#0f391d"/>
	</g>
</g>
<g>
	<g>
		<path d="M256,408.822c-15.186,0-27.541,12.354-27.541,27.541c0,15.187,12.354,27.541,27.541,27.541s27.541-12.354,27.541-27.541    S271.186,408.822,256,408.822z M256,448.903c-6.915,0-12.541-5.626-12.541-12.541c0-6.915,5.625-12.541,12.541-12.541    s12.541,5.626,12.541,12.541C268.541,443.277,262.915,448.903,256,448.903z" fill="#0f391d"/>
	</g>
</g>
<g>
</g>
<g>
</g>
<g>
</g>
<g>
</g>
<g>
</g>
<g>
</g>
<g>
</g>
<g>
</g>
<g>
</g>
<g>
</g>
<g>
</g>
<g>
</g>
<g>
</g>
<g>
</g>
<g>
</g>
</svg>
